{"accessors":[{"bufferView":0,"byteOffset":0,"componentType":5126,"count":36,"max":[0.5,0.5,1.5],"min":[-0.5,-0.5,-1.5],"normalized":false,"type":"VEC3"},{"bufferView":1,"byteOffset":0,"componentType":5126,"count":36,"max":[0,0,0.0000763009302318096,-1],"min":[-1,-1,-1,-1],"normalized":false,"type":"VEC4"},{"bufferView":2,"byteOffset":0,"componentType":5126,"count":36,"max":[1,1,1],"min":[-1,-1,-1],"normalized":false,"type":"VEC3"},{"bufferView":3,"byteOffset":0,"componentType":5126,"count":36,"max":[1,1],"min":[0,0],"normalized":false,"type":"VEC2"},{"bufferView":4,"byteOffset":0,"componentType":5123,"count":36,"max":[35],"min":[0],"normalized":false,"type":"SCALAR"},{"bufferView":5,"byteOffset":0,"componentType":5126,"count":75,"max":[0.5,0.5,1],"min":[-0.5,-0.5,-1],"normalized":false,"type":"VEC3"},{"bufferView":6,"byteOffset":0,"componentType":5126,"count":75,"max":[0,0.00663387542590499,0.00210879975929856,1],"min":[-1,-1,-1,-1],"normalized":false,"type":"VEC4"},{"bufferView":7,"byteOffset":0,"componentType":5126,"count":75,"max":[1,1,1],"min":[-1,-1,-0.9537301659584],"normalized":false,"type":"VEC3"},{"bufferView":8,"byteOffset":0,"componentType":5126,"count":75,"max":[1,1],"min":[0,0],"normalized":false,"type":"VEC2"},{"bufferView":9,"byteOffset":0,"componentType":5123,"count":75,"max":[74],"min":[0],"normalized":false,"type":"SCALAR"}],"asset":{"generator":"Godot Engine v4.3.stable.mono.official@77dcf97d82cbfe4e4615475fa52ca03da645dbd8","version":"2.0"},"bufferViews":[{"buffer":0,"byteLength":432,"byteOffset":0,"byteStride":12,"target":34962},{"buffer":0,"byteLength":576,"byteOffset":432,"byteStride":16,"target":34962},{"buffer":0,"byteLength":432,"byteOffset":1008,"byteStride":12,"target":34962},{"buffer":0,"byteLength":288,"byteOffset":1440,"byteStride":8,"target":34962},{"buffer":0,"byteLength":72,"byteOffset":1728,"target":34963},{"buffer":0,"byteLength":900,"byteOffset":1800,"byteStride":12,"target":34962},{"buffer":0,"byteLength":1200,"byteOffset":2700,"byteStride":16,"target":34962},{"buffer":0,"byteLength":900,"byteOffset":3900,"byteStride":12,"target":34962},{"buffer":0,"byteLength":600,"byteOffset":4800,"byteStride":8,"target":34962},{"buffer":0,"byteLength":150,"byteOffset":5400,"target":34963}],"buffers":[{"byteLength":5552,"uri":"player0.bin"}],"extensions":{"OMI_physics_shape":{"shapes":[{"box":{"size":[1,1,3]},"type":"box"},{"box":{"size":[1.10000002384186,1.10000002384186,3.09999990463257]},"type":"box"}]}},"extensionsUsed":["GODOT_single_root","OMI_physics_body","OMI_physics_shape"],"materials":[{"extensions":{},"pbrMetallicRoughness":{"baseColorFactor":[0.68613588809967,0.056744284927845,0,1],"metallicFactor":0,"roughnessFactor":1}},{"extensions":{},"pbrMetallicRoughness":{"baseColorFactor":[0.68613588809967,0.056744284927845,0,1],"metallicFactor":0,"roughnessFactor":1}}],"meshes":[{"extras":{"targetNames":[]},"primitives":[{"attributes":{"NORMAL":2,"POSITION":0,"TANGENT":1,"TEXCOORD_0":3},"indices":4,"material":0,"mode":4}]},{"extras":{"targetNames":[]},"primitives":[{"attributes":{"NORMAL":7,"POSITION":5,"TANGENT":6,"TEXCOORD_0":8},"indices":9,"material":1,"mode":4}]}],"nodes":[{"children":[1,2,4],"extensions":{"OMI_physics_body":{"motion":{"type":"kinematic"}}},"name":"Player"},{"extensions":{"OMI_physics_body":{"collider":{"shape":0}}},"name":"CollisionShape3D","translation":[0,0,1]},{"children":[3],"extensions":{"OMI_physics_body":{"trigger":{"nodes":[3]}}},"name":"HurtBox"},{"extensions":{"OMI_physics_body":{"trigger":{"shape":1}}},"name":"CollisionShape3D2","translation":[0,0,1]},{"children":[5,6],"name":"Model"},{"mesh":0,"name":"CSGBox3D2","translation":[0,0,1]},{"children":[7,8],"mesh":1,"name":"CSGCombiner3D2","translation":[0,1,1.5]},{"name":"CSGBox3D22"},{"name":"CSGBox3D3","rotation":[0.152123481035233,0,0,0.988361477851868],"translation":[0,-0.13900600373745,-1.38094997406006]}],"scene":0,"scenes":[{"nodes":[0]}]}